<svg id="Capa_1" enable-background="new 0 0 512 512" height="512" viewBox="0 0 512 512" width="512" xmlns="http://www.w3.org/2000/svg"><g><g><g><g><g><g><g><circle cx="256" cy="256" fill="#a3d4ff" r="256"/></g></g></g></g></g></g></g><path d="m510.928 279.588-74.998-73.383-26.994 15.211-67.73-67.73-281.223 191.864 164.533 164.533c10.318 1.265 20.825 1.917 31.484 1.917 133.432 0 243.022-102.084 254.928-232.412z" fill="#65b1fc"/><g><g><path d="m59.983 184.182 216.879-56.802s78.748 10.328 78.748 56.802l-126.565 30.652z" fill="#fa0"/></g><g><path d="m355.61 184.182c0-46.474-78.748-56.802-78.748-56.802l-65.32 17.108v67.173l17.503 3.173z" fill="#ff9500"/></g><g><path d="m59.983 184.182h295.627v161.368h-295.627z" fill="#ffce00"/></g><g><path d="m211.542 184.182h144.068v161.368h-144.068z" fill="#fdba12"/></g><g><ellipse cx="106.669" cy="248.61" fill="#fa0" rx="33.776" ry="33.776" transform="matrix(.707 -.707 .707 .707 -144.551 148.242)"/></g><g><circle cx="212.333" cy="231.965" fill="#fa0" r="24.546"/></g><g><path d="m212.333 207.419c-.265 0-.528.012-.791.02v49.052c.263.008.526.02.791.02 13.556 0 24.546-10.99 24.546-24.546s-10.99-24.546-24.546-24.546z" fill="#ff9500"/></g><g><path d="m355.61 231.091c-4.563-1.934-9.581-3.004-14.849-3.004-21.031 0-38.08 17.049-38.08 38.08s17.049 38.08 38.08 38.08c5.268 0 10.286-1.07 14.849-3.004z" fill="#fa0"/></g><g><ellipse cx="257.825" cy="303.332" fill="#ff9500" rx="20.946" ry="20.946" transform="matrix(.192 -.981 .981 .192 -89.41 498.041)"/></g><g><circle cx="168.1" cy="303.917" fill="#fa0" r="11.296"/></g></g><g><g><path d="m393.172 265.193-23.542-18.596 42.758-58.989 23.542 18.596z" fill="#06bf51"/></g><g><path d="m382.982 257.144 10.19 8.049 42.758-58.989-11.959-9.446-24.436 35.894z" fill="#0d9b50"/></g><g><g><ellipse cx="311.503" cy="362.954" fill="#ff6c52" rx="39.646" ry="39.646" transform="matrix(1 -.001 .001 1 -.403 .346)"/></g><g><path d="m334.16 330.436-44.586 65.547c18.23 12.104 42.823 7.15 54.942-11.074 11.965-17.993 7.291-42.187-10.356-54.473z" fill="#ff432e"/></g><path d="m388.311 319.425c-16.326-10.857-37.758-8.013-50.768 5.788 7.696-17.335 2.03-38.2-14.296-49.057-18.232-12.125-42.842-7.174-54.967 11.059-12.125 18.232-7.174 42.842 11.059 54.967 16.326 10.857 37.758 8.013 50.768-5.788-7.696 17.335-2.03 38.2 14.296 49.057 18.232 12.125 42.842 7.174 54.967-11.059s7.174-42.842-11.059-54.967z" fill="#ff432e"/><path d="m330.108 336.394c-7.696 17.335-2.03 38.2 14.296 49.057 18.232 12.125 42.842 7.174 54.967-11.059s7.174-42.842-11.059-54.967c-16.326-10.857-37.758-8.013-50.768 5.788z" fill="#db0404"/><g><g><ellipse cx="408.828" cy="325.136" fill="#ff432e" rx="39.646" ry="39.646" transform="matrix(.98 -.197 .197 .98 -56.098 87.024)"/></g><g><ellipse cx="308.056" cy="258.121" fill="#ff6c52" rx="39.646" ry="39.646" transform="matrix(.433 -.901 .901 .433 -58.041 423.946)"/></g></g><g><ellipse cx="358.567" cy="293.598" fill="#ff583e" rx="39.646" ry="39.646" transform="matrix(.422 -.907 .907 .422 -58.872 494.883)"/></g><g><path d="m380.521 260.586c18.233 12.125 23.184 36.734 11.059 54.967-12.125 18.232-36.734 23.184-54.967 11.059z" fill="#f92814"/></g><path d="m433.828 237.306c-10.517-6.994-23.152-8.295-34.293-4.654-.792-11.894-6.908-23.299-17.601-30.41-18.233-12.125-42.842-7.174-54.967 11.059-12.125 18.232-7.174 42.842 11.059 54.967 10.517 6.994 23.152 8.295 34.293 4.654.792 11.894 6.908 23.299 17.601 30.41 18.233 12.125 42.842 7.174 54.967-11.059 12.124-18.233 7.173-42.842-11.059-54.967z" fill="#ff432e"/><path d="m372.319 272.922c.792 11.894 6.908 23.299 17.601 30.41 18.233 12.125 42.842 7.174 54.967-11.059s7.174-42.842-11.059-54.967c-10.517-6.994-23.152-8.295-34.293-4.654z" fill="#db0404"/></g></g></svg>